# xmcd
#
# Track frame offsets:
#	150
#	10810
#	26116
#	39057
#	52277
#	65837
#	78180
#	92340
#	105382
#	117705
#	129776
#	144600
#	157535
#	174832
#	189012
#	201624
#	216577
#	231236
#	243778
#	257610
#	270224
#	284146
#	297207
#
# Disc length: 4213 seconds
#
# Revision: 2
# Processed by: cddbd v1.5.2PL0 Copyright (c) Steve Scherf et al.
# Submitted via: audiograbber 1.83.01
#
DISCID=3f107317
DTITLE=Various Artist - For One Night Only CD 1
DYEAR=2005
DGENRE=Blues
TTITLE0=Albert Ammons - Boogie Woogie Blues
TTITLE1=Lightnin´ Hopkins - Jake Head Boogie
TTITLE2=Big Bill Broonzy - Wee Wee Hours
TTITLE3=Sonny Terry - Whoopin´ The Blues
TTITLE4=Sonny Boy Williamson - Better Cut That Out
TTITLE5=T-Bone Walker - Blues is a Woman
TTITLE6=Howlin´ Wolf - I've Got A Woman
TTITLE7=Lowell Fulson - Low Society Blues
TTITLE8=Muddy Waters - Sad, Sad Day
TTITLE9=Memphis Slim - Whiskey and Gin Blues
TTITLE10=John Lee Hooker - Walkin´ The Boogie
TTITLE11=Ivory Joe Hunter - Landlord Blues
TTITLE12=B.B. King - When Your Baby Packs Up And Goes
TTITLE13=Joe Lutcher - Rockin´ Boogie
TTITLE14=Bull Moose Jackson - We Ain´t Got Nothin´
TTITLE15=Lonnie Johnson - Blues In "G"
TTITLE16=Roy Milton - Big Fat Mama
TTITLE17=Wynonie Harris - Who Threw The Whiskey In The Well ?
TTITLE18=Pee Wee Crayton - Blues After Hours
TTITLE19=Roy Brown - Bar Room Blues
TTITLE20=Ray Charles - Kiss Me Baby
TTITLE21=Big Joe Turner - Back Breaking Blues
TTITLE22=Arthur "Big Boy" Crudup - That´s All Right Mama
EXTD=
EXTT0=
EXTT1=
EXTT2=
EXTT3=
EXTT4=
EXTT5=
EXTT6=
EXTT7=
EXTT8=
EXTT9=
EXTT10=
EXTT11=
EXTT12=
EXTT13=
EXTT14=
EXTT15=
EXTT16=
EXTT17=
EXTT18=
EXTT19=
EXTT20=
EXTT21=
EXTT22=
PLAYORDER=
